<?xml version="1.0" standalone="no"?>
<!DOCTYPE svg PUBLIC "-//W3C//DTD SVG 20010904//EN"
 "http://www.w3.org/TR/2001/REC-SVG-20010904/DTD/svg10.dtd">
<svg version="1.0" xmlns="http://www.w3.org/2000/svg"
 width="1698.000000pt" height="1698.000000pt" viewBox="0 0 1698.000000 1698.000000"
 preserveAspectRatio="xMidYMid meet">
<metadata>
Created by potrace 1.14, written by Peter Selinger 2001-2017
</metadata>
<g transform="translate(0.000000,1698.000000) scale(0.100000,-0.100000)"
fill="#000000" stroke="none">
<path d="M8288 16965 c-2 -1 -39 -6 -83 -10 -105 -9 -124 -11 -187 -24 -29 -6
-69 -13 -88 -16 -131 -21 -340 -83 -511 -151 -121 -47 -374 -170 -406 -196 -7
-5 -27 -18 -45 -27 -43 -23 -73 -40 -403 -231 -154 -90 -296 -172 -315 -182
-19 -11 -138 -80 -265 -153 -126 -73 -435 -251 -685 -395 -250 -144 -496 -287
-546 -316 -50 -30 -96 -54 -102 -54 -7 0 -12 -4 -12 -10 0 -5 -4 -10 -10 -10
-5 0 -34 -16 -64 -35 -30 -19 -57 -35 -60 -35 -3 0 -34 -17 -68 -38 -35 -21
-94 -56 -133 -76 -38 -21 -77 -45 -86 -52 -8 -8 -18 -14 -21 -14 -5 0 -354
-200 -523 -299 -47 -28 -88 -51 -91 -51 -2 0 -23 -11 -45 -26 -22 -14 -55 -33
-72 -43 -18 -10 -120 -69 -227 -131 -107 -62 -284 -164 -392 -226 -108 -63
-212 -122 -230 -133 -18 -11 -69 -40 -113 -66 -347 -198 -527 -311 -630 -396
-190 -158 -301 -266 -445 -435 -166 -193 -345 -492 -454 -755 -73 -176 -160
-484 -181 -635 -19 -136 -26 -199 -32 -279 -9 -123 -8 -5845 1 -5968 4 -54 9
-106 11 -115 1 -9 6 -42 9 -72 4 -30 14 -89 22 -130 8 -41 16 -84 18 -96 15
-75 71 -269 111 -379 50 -138 182 -415 240 -503 19 -30 35 -56 35 -58 0 -7 91
-135 169 -239 82 -108 346 -379 449 -460 35 -27 69 -55 75 -61 21 -19 280
-191 322 -213 22 -12 56 -31 75 -42 19 -12 141 -82 270 -157 129 -74 388 -224
575 -332 187 -108 360 -208 385 -222 102 -58 436 -251 445 -258 6 -4 35 -21
65 -37 31 -17 137 -77 235 -135 99 -58 200 -116 225 -130 25 -14 160 -92 300
-173 140 -81 275 -159 299 -173 25 -14 68 -38 95 -55 28 -16 66 -38 84 -48 17
-11 47 -27 65 -38 17 -10 176 -102 352 -203 176 -102 397 -229 490 -283 94
-54 186 -107 205 -118 19 -11 91 -52 160 -92 575 -334 677 -389 871 -466 92
-36 306 -105 359 -115 13 -3 61 -14 106 -24 45 -11 95 -21 111 -24 69 -11 112
-16 163 -21 30 -3 79 -8 109 -11 64 -7 372 -7 451 0 86 8 166 16 186 20 11 2
53 9 94 16 196 31 478 116 665 200 122 54 304 148 365 188 22 14 73 43 180
104 116 66 517 298 578 334 40 24 75 44 77 44 2 0 45 25 95 55 50 30 93 55 95
55 2 0 45 25 96 55 50 30 93 55 95 55 1 0 60 34 129 75 70 41 129 75 132 75 3
0 17 8 31 19 15 10 52 32 82 48 30 16 98 54 150 85 192 113 462 268 467 268 4
0 14 6 22 14 9 8 39 26 66 40 28 15 57 31 65 36 69 43 151 90 155 90 3 0 22
11 43 24 20 12 129 76 242 141 113 65 259 150 325 188 66 38 138 79 160 91 22
13 107 62 189 109 82 48 150 87 152 87 1 0 39 23 84 50 45 28 83 50 84 50 2 0
113 64 247 141 134 78 260 150 279 161 467 267 583 339 744 461 144 109 381
342 495 486 222 280 380 570 491 900 38 112 83 279 95 351 3 19 8 42 10 50 2
8 7 35 10 60 3 25 8 56 10 70 9 61 15 110 20 175 8 93 8 5911 1 5995 -7 75
-16 154 -21 190 -20 131 -29 179 -51 270 -118 484 -331 893 -664 1275 -122
139 -357 349 -500 445 -12 8 -33 23 -45 33 -13 9 -28 17 -33 17 -6 0 -12 4
-14 9 -2 7 -391 237 -538 319 -25 13 -85 48 -135 77 -94 56 -897 519 -975 563
-25 14 -73 43 -108 64 -34 21 -64 38 -66 38 -2 0 -79 44 -172 98 -93 54 -189
110 -214 124 -25 14 -90 51 -145 83 -55 32 -244 141 -420 243 -176 101 -345
199 -375 217 -30 18 -75 44 -100 58 -25 13 -133 76 -240 138 -107 62 -212 122
-232 133 -20 12 -153 88 -295 170 -142 83 -280 163 -308 178 -27 16 -64 37
-81 48 -199 118 -660 377 -734 413 -190 90 -446 180 -602 211 -12 2 -54 11
-93 19 -80 17 -130 26 -195 33 -25 3 -79 8 -120 13 -70 8 -454 13 -462 6z"/>
</g>
</svg>
